<?xml version="1.0" encoding="UTF-8"?>
<svg version="1.1" viewBox="0 0 2048 1700" width="1280" height="1280" xmlns="http://www.w3.org/2000/svg">
<path transform="translate(1015,20)" d="m0 0h22l48 2 35 3 49 6 35 6 56 13 47 14 41 14 42 17 36 16 30 15 22 12 26 15 17 11 25 16 20 14 20 15 13 10 11 9 14 12 11 9 14 12 26 24 26 26 7 8 7 7 7 8 12 14 11 13 9 11 10 12 14 19 8 13 8 15 4 10v2h2l4-21 3-23 5-21 5-13 6-9 5-4 2-1h9l6 4 8 9 8 18 7 25 8 40 5 32 9 81 5 70 2 38 3 12h2l1-23 3-28 5-30 6-29 6-20 6-17 8-16 8-12 8-6 2-1h8l6 4 7 14 4 18 2 31v53l-2 50-4 49-9 81-3 28-6 43-2 17-3 53v8l1 3 24 3 5 4 1 2v7l-5 6-7 2-7 1-1 1-1 220h7l7-1 1-13 3-3h10l9 2 2 2v263l-1 19h15l32 1v5l-60 1h-651l-2 5-11 21-1 3h13l23 4 29 7 32 9 30 11 21 10 15 10 11 10 5 9 1 10-2 9-6 9-8 8-16 10-16 8-23 9-25 8-30 8-41 9-39 7-54 8-35 4-92 8-50 3-56 2-53 1h-45l-47-1-72-3-80-7-9-2-3-1-2 5-6 9-6 8h-33l-5-18-4-10-2-1-1 2h-11l-57-9-37-7-47-11-29-9-18-6-25-11-16-10-13-12-8-14v-9l5-10 6-8 16-12 19-10 28-11 49-14 40-9 35-6 15-2-1-6-6-12-2-1h-63l-358-1-164-1v-6h93l-4-20-7-45-5-44-6-39-4-29-3-24-12-86-9-68-6-39-5-44v-8l3-7 4-4 7-3h15l19 2h9v-14l-1-25v-19l1-41 2-29 4-43 4-29 6-36 8-38 10-37 3-13-26-4-10-3-12-7-10-10-8-14-4-12v-212l4-12 6-11 10-11 11-7 10-4 14-2 175-1 9-2 9-15 9-11 13-15 14-15 11-11 2-3h2l2-4 31-31 17-13 5-6 1-10 1-123 3-15 4-10 8-11 11-8 9-4 17-2h182l68-1 25-1 16-3 28-9 48-12 42-8 39-5 34-3 40-2zm-816 462-12 4-9 7-4 5-4 8v7l8 14 9 10 10 8 16 8 6 2 10-4 8-7 5-10 1-3v-20l-4-10-9-10-7-5-13-4zm1757 739-3 1-8 11-8 10-7 7-18 12-9 5-4 10-7 21-15 36-13 29-14 29-12 22-12 23-7 11-9 10-12 5v1l19 2h112l50-1 1-5-1-232-2-4-6-2z" fill="#F1F6F9"/>
<path transform="translate(1830,351)" d="m0 0h9l6 4 8 9 8 18 7 25 8 40 5 32 9 81 5 70 2 38 3 12h2l1-23 3-28 5-30 6-29 6-20 6-17 8-16 8-12 8-6 2-1h8l6 4 7 14 4 18 2 31v53l-2 50-4 49-9 81-3 28-6 43-2 17-3 53v8l1 3 24 3 5 4 1 2v7l-5 6-7 2-7 1-1 1-1 220h7l7-1 1-13 3-3h10l9 2 2 2v263l-1 19h15l32 1v5l-60 1h-651l-2 5-11 21-1 3h13l23 4 29 7 32 9 30 11 21 10 15 10 11 10 5 9 1 10-2 9-6 9-8 8-16 10-16 8-23 9-25 8-30 8-41 9-39 7-54 8-35 4-92 8-50 3-56 2-53 1h-45l-47-1-72-3-80-7-9-2-3-1-2 5-6 9-6 8h-33l-5-18-4-10-2-1-1 2h-11l-57-9-37-7-47-11-29-9-18-6-25-11-16-10-13-12-8-14v-9l5-10 6-8 16-12 19-10 28-11 49-14 40-9 35-6 15-2-1-6-6-12-2-1h-63l-358-1-164-1v-6h34l549 2-7-23-2-13v-11l3-16 5-16 7-14 8-12 9-8 10-6 11-3 122 1 30 10 16 5 7 3 1 9-28-5-64-12-30-5 1 3 12 3 63 12 46 9 2 16 2 21 2 4 4 2 15 1h228l21 1-3 3-20 8-27 11-30 12-19 8-20 8-38 15-20 8-66 27-32 13-37 15-1 3 9-2 45-18 54-22 28-11 31-13 26-10 27-11 32-13 42-17 29-12 4-2 6-1 28-1 3-3 3-16 4-37 3-32 5-35 2-13 5-3 20-11-1-8-15-46-2-8 1-13 3-23 1-3-1-13h-2v-2h-358l-9 2-2 3-1 10-3 1-16-8-29-15-15-8-11-5-4-4-8-5 6-11 11-22 10-19 8-16 11-20 10-14 8-10 9-10 11-9 14-10 17-9 25-9 24-4 19-1 57-1-1-1v-10l2-14v-13l-6-9-5-14-2-7-8-5-3-4-1-10 2-5 4-2v-7l-5-17-1-10v-12l2-10 2-4v-6l-3-9 2-9 6-9 12-6 13-4 20-2h80l1 1 1 14-3 12-6 8-5 4-4 2 2 5 2 6v5h2v20h76l262 1 15 3 16 8 12 9 8 8 11 16 5 9 1 6 1 20v106l36-12 21-5 13-2 23-1 6 3 8 9v10l-5 26-10 51-8 42-8 41-9 50-7 39-10 50-6 31-12 63-9 42 264 1 2-1-2-8v-274l5-1h14l2 1 1 16h22l-1-28v-157l-1-37-13-2-4-4-1-2v-10l2-4 23-1h17l-9-34-5-23-5-18-12-51-10-46-7-41-5-33-2-22v-21l2-13 3-6 5-5h7l6 4 8 8 9 15 12 27 11 31 3 12v-13l-4-65-4-83-1-35v-45l1-53 1-9 3-21 4-23 6-20 6-11 7-6zm126 870-3 1-8 11-8 10-7 7-18 12-9 5-4 10-7 21-15 36-13 29-14 29-12 22-12 23-7 11-9 10-12 5v1l19 2h112l50-1 1-5-1-232-2-4-6-2z" fill="#BBDEF9"/>
<path transform="translate(904,839)" d="m0 0h6l2 1 3 11 2-3 4 13v7l-5 2-1 9 2 8 5 4 5 3 7 21 6 9v13l-2 14v10l55 1v1l-112 1-19 1-24 4-20 7-19 9-17 12-14 12-7 8-12 16-9 15-12 23-8 16-15 29-6 11 10 6 1 3 5 1 17 9 16 8 20 11 13 6h2l1-10 5-5 13-1h341l11 1v2h2l2 14-2 8-3 23v7l8 27 9 27 1 8-10 6-15 8-7 48-6 60-3 22-3 5-2 2-28 1-7 2-30 12-36 15-25 10-27 11-28 11-15 6-29 12-55 22-29 12-25 10-21 8-6 1v-4l8-4 30-12 34-14 59-24 25-10 38-15 25-10 19-8 65-26 9-4-20-1h-235l-10-2-4-3-2-10-2-30-10-1-99-19-12-3-1-4 13 1 49 9 54 10 6 2-2-9-18-6-16-5-18-6-122-1-13 4-13 9-6 7-10 17-5 14-4 15-1 8v11l2 13 5 17 1 6h-398l-95-1 3-1-4-20-7-45-5-44-6-39-4-29-3-24-12-86-9-68-6-39-5-44v-8l3-7 4-4 7-3h15l27 3 17 5 21 8 19 9 21 12 13 9 4 1 1-115 2-39 3-9 10-16 11-12 9-8 8-5 16-6 6-1 17-1 595-1z" fill="#BBDEF9"/>
<path transform="translate(1271,1335)" d="m0 0h19l12 4 11 6 13 13 12 18 7 16 4 16v27l-5 20-3 9v3l314-1h150l124-1h69l50 1v5l-60 1h-651l-2 5-11 21-1 3h13l23 4 29 7 32 9 30 11 21 10 15 10 11 10 5 9 1 10-2 9-6 9-8 8-16 10-16 8-23 9-25 8-30 8-41 9-39 7-54 8-35 4-92 8-50 3-56 2-53 1h-45l-47-1-72-3-80-7-9-2-3-1-2 5-6 9-6 8h-33l-5-18-4-10-2-1-1 2h-11l-57-9-37-7-47-11-29-9-18-6-25-11-16-10-13-12-8-14v-9l5-10 6-8 16-12 19-10 28-11 49-14 40-9 35-6 15-2-1-6-6-12-2-1h-63l-358-1-164-1v-6h34l549 2-7-23-2-13v-11l3-16 5-16 7-14 8-12 9-8 10-6 11-3 122 1 30 10 16 5 7 3 1 9-28-5-64-12-30-5 1 3 12 3 63 12 46 9 2 16 2 21 2 4 4 2 15 1h228l21 1-3 3-20 8-27 11-30 12-19 8-20 8-38 15-20 8-66 27-32 13-37 15-1 3 9-2 45-18 54-22 28-11 31-13 26-10 27-11 32-13 42-17 29-12 4-2 6-1 28-1 3-3 3-16 4-37 1-2 40-12 18-6h46l13-5z" fill="#070647"/>
<path transform="translate(292,375)" d="m0 0 530 1 10 2 13 5 10 7 8 9 8 16 2 15 1 161-1 41-2 11-7 13-10 11h-2v2l-11 7-12 4-6 1-60 1-1 99-5 3h-10l-4-6v-2h-2l-8-16-8-15-8-16-20-39-3-7-2-1h-581l-16-3-14-7-10-9-7-9-6-13-2-7v-212l4-12 6-11 10-11 11-7 10-4 5-1zm-93 107-12 4-9 7-4 5-4 8v7l8 14 9 10 10 8 16 8 6 2 10-4 8-7 5-10 1-3v-20l-4-10-9-10-7-5-13-4z" fill="#72C4F5"/>
<path transform="translate(464,65)" d="m0 0h283l17 2 16-1 68-1 232 1 16 3 10 5 11 10 6 9 3 7 1 18 1 142-1 33-3 10-8 11-5 5-8 7-9 4-14 2-44 1-4 1-6 18-12 40-8 23-4 5h-8l-4-5-7-24-11-47-2-9-1-1-94-1h-186l-228-1-14-2-12-6-4-3v-2h-2l-9-11-4-8-2-14-1-38 1-8-2-10v-115l3-15 4-10 8-11 11-8 9-4z" fill="#BCDFF9"/>
<path transform="translate(1830,351)" d="m0 0h9l6 4 8 9 8 18 7 25 8 40 5 32 9 81 5 70 2 38 3 12h2l1-23 3-28 5-30 6-29 6-20 6-17 8-16 8-12 8-6 2-1h8l6 4 7 14 4 18 2 31v53l-2 50-4 49-9 81-3 28-6 43-2 17-3 53v8l1 3 24 3 5 4 1 2v7l-5 6-7 2-7 1-1 1-1 219-1 1h-184l-1-1-1-153-2-67-13-2-4-4-1-2v-10l2-4 23-1h17l-9-34-5-23-5-18-12-51-10-46-7-41-5-33-2-22v-21l2-13 3-6 5-5h7l6 4 8 8 9 15 12 27 11 31 3 12v-13l-4-65-4-83-1-35v-45l1-53 1-9 3-21 4-23 6-20 6-11 7-6z" fill="#B2DAE1"/>
<path transform="translate(968,763)" d="m0 0h80l1 1 1 14-3 12-6 8-5 4-4 2 2 5 3 11v16l-3 15-4 12v7l4 3v8l-5 8-7 5-6 20-6 11-1 1v13l2 21-1 1 66 3 22 3 24 8 22 11 18 13 16 15 9 11 10 15 13 24 11 22 10 19 9 17 2 3v3l-13 7-19 10-10 6-16 8-25 12h-2l-1-13h-2v-2h-358l-9 2-2 3-1 10-3 1-16-8-29-15-15-8-11-5-4-4-8-5 6-11 11-22 10-19 8-16 11-20 10-14 8-10 9-10 11-9 14-10 17-9 25-9 24-4 19-1 57-1-1-1v-10l2-14v-13l-6-9-5-14-2-7-8-5-3-4-1-10 2-5 4-2v-7l-5-17-1-10v-12l2-10 2-4v-6l-3-9 2-9 6-9 12-6 13-4z" fill="#047EF7"/>
<path transform="translate(796,1155)" d="m0 0h347l11 1v2h2l2 14-2 8-3 23v7l8 27 9 27 1 8-10 6-15 8-7 48-6 60-3 22-3 5-2 2-28 1-7 2-30 12-36 15-25 10-27 11-28 11-15 6-29 12-55 22-29 12-25 10-21 8-6 1v-4l8-4 30-12 34-14 59-24 25-10 38-15 25-10 19-8 65-26 9-4-20-1h-235l-10-2-4-3-2-10-2-30-10-1-99-19-12-3-1-4 13 1 49 9 54 10 6 2-3-13-4-48-2-21-2-6-22-13-1-1v-7l12-35 5-18v-12l-2-24-1-5 1-10 5-5z" fill="#BBDEF9"/>
<path transform="translate(1294,390)" d="m0 0h197l32 1 7 3 3 4 1 5 1 30v213l-1 27-2 8-9 3-9 1-30 1h-187l-42-1-11-2-4-3-1-5-1-36v-185l1-44 1-13 3-4 9-2z" fill="#F0F6F9"/>
<path transform="translate(1322,1498)" d="m0 0 1 3h13l23 4 29 7 32 9 30 11 21 10 15 10 11 10 5 9 1 10-2 9-6 9-8 8-16 10-16 8-23 9-25 8-30 8-41 9-39 7-54 8-35 4-92 8-50 3-56 2-53 1h-45l-47-1-72-3-80-7-9-2-2-1 2-9h2l1-3h10l28-5 27-5 15-2 2 5 13-2 70-15 36-8 54-11 41-9 46-10 106-23 106-23 12-5 8-6 12-12 11-12 14-19z" fill="#BBDEF9"/>
<path transform="translate(1830,351)" d="m0 0h9l6 4 8 9 8 18 7 25 8 40 5 32 9 81 5 70 2 44-1 2v9l1 12 4 93 1 25 2 1h-2v134l-1 1h-69l-1-2-3-1v4h-3l-9-37-1-3-8-7-19-19-2-5 3 1v2l4 2 11 12 10 10 2 1-3-7-10-46-8-32-6-25-4-6-8-10-13-17-5-7 2-1 5 5 9 12 10 13 2 1-3-14-9-38-7-31-8-35v-6l2 1 8 36 6 25 4 18 2 1 2-9 6-21 1-6h2l-1 9-9 31 1 10 5 23 2 11 4 16 8 34 1 6 5-2 9-24v-17l-4-43-4-46-5-85-3-74v-84l1-37 2-26 4-23 6-20 6-11 7-6z" fill="#8BCDC9"/>
<path transform="translate(1776,1042)" d="m0 0h1l1 153 192 1 7-1 1-13 3-3h10l9 2 2 2v263l-1 19h15v1h-18l-19-1-1-237-1-3-6-2-15-1h-3l-2 5-9 11-7 8-8 7-15 10-9 5-10 30-15 36-13 29-14 29-12 22-12 23-7 11-10 11-11 4 5 1v1h-72l2-2-2-8v-274l5-1h14l2 1 1 16h22l-1-28v-95z" fill="#BDDFF9"/>
<path transform="translate(1294,390)" d="m0 0h197l32 1 7 3 3 4 1 5 1 30v213l-1 27-2 8-9 3-9 1-30 1h-187l-42-1-11-2-4-3-1-5-1-36v-185l1-44 1-13 3-4 9-2zm43 24-69 1-4 4-1 3v223l1 2 4-2 5-3 7-8 7-7 8-7 8-5 6-6v-2l4-2 8-8 10-8 9-4h13l6 3 8 6 1 2 5 3 9 10 7 8 9 6h8l8-6 16-15 8-9 11-9 6-7 8-7 15-15 6-7 8-7 14-13 4-4v-106l-4-3-22-1z" fill="#BBDEF9"/>
<path transform="translate(1776,976)" d="m0 0h187v219l-1 1h-184l-1-1-1-153z" fill="#72C4F5"/>
<path transform="translate(304,1344)" d="m0 0 172 1h115l19 1 5 2-2 4-11 7-7 8-10 17-5 14-4 15-1 8v11l3 21 2 7v5l-3 1h-242l-77-1-5-2-1-1v-38l3-37 3-12 6-10 9-10 10-6 13-4z" fill="#F1F6F9"/>
<path transform="translate(595,1489)" d="m0 0h2l10 14 8 8 7 8 12 11 13 10 11 8 16 9 10 3 8 1 76 1 1 9-15 7-46 19-19 8-7-3-9-6-13-5-11-2h-8l-5 3-3 4 1 12 5 23 7 31 1 11-4-2-1 2h-11l-57-9-37-7-47-11-29-9-18-6-25-11-16-10-13-12-8-14v-9l5-10 6-8 16-12 19-10 28-11 49-14 40-9 35-6 15-2z" fill="#BCDEF9"/>
<path transform="translate(196,426)" d="m0 0h15l13 2 17 5 19 9 11 9 8 7 7 8 9 14 6 14 4 14 1 6v28l-4 16-5 12-6 11-8 11-9 11-13 10-12 7h-4v2l-21 6-6 1h-28l-19-5-13-5v-2l-9-3-10-7v-2l-5-2-8-10-10-15-6-12-5-17-2-13v-11l2-19 5-17 7-14 7-10 9-10 10-9 15-9 15-6 16-4zm3 56-12 4-9 7-4 5-4 8v7l8 14 9 10 10 8 16 8 6 2 10-4 8-7 5-10 1-3v-20l-4-10-9-10-7-5-13-4z" fill="#BCDFF9"/>
<path transform="translate(1754,1221)" d="m0 0h24l7 1 1 3 3 1 4 6 9 10 9 9 3 2v2h3v2l4 1 14 7 16 5 4 1h28l19-3-2 9-7 21-15 36-13 29-14 29-12 22-12 23-7 11-10 11-12 5h-47l1-201 1-40z" fill="#F1F6F9"/>
<path transform="translate(1228,1135)" d="m0 0h3l4 11 9 29 9 27 15 47 7 22 2 9 1 19-2 9-4 8-9 8-19 7-32 10-13 4-1 2-7 1-31 10-20 6h-4v-12l5-40 4-26 5-3 20-11-1-8-15-46-2-8 1-13 3-23 5-5 29-14 17-9 19-10z" fill="#FE9593"/>
<path transform="translate(968,763)" d="m0 0h80l1 1 1 14-3 12-6 8-5 4-4 2 2 5 3 11v16l-3 15-4 12v7l4 3v8l-5 8-7 5-6 20-6 11-1 1v13l2 21-3 2h-70l-1-1v-10l2-14v-13l-6-9-5-14-2-7-8-5-3-4-1-10 2-5 4-2v-7l-5-17-1-10v-12l2-10 2-4v-6l-3-9 2-9 6-9 12-6 13-4z" fill="#FE9593"/>
<path transform="translate(709,1135)" d="m0 0 8 3 15 8 16 8 20 11 15 7 2 4 2 24v12l-7 24-10 29v7l22 13 2 2 2 17 5 54v6l-9-2-25-8-18-6-11-1 2-2-50-15-12-5-8-7-4-5-3-10v-19l4-19 18-56 22-70z" fill="#FE9594"/>
<path transform="translate(648,132)" d="m0 0 4 2 4 6 1 5 1 73-1 36-3 6-7 6-3 1-27 1h-114l-18-1-8-4-5-5-1-3v-107l2-8 4-6 4-1 5 4v2l4 1 6 5v2l4 1 1 3 4 1 11 9v2l4 1v2l5 2 5 4v2l5 2 9 7v2l4 1 1 3 4 1 9 7v2l6-3 3-3h3l2-4 4-3h3l1-3h3l2-4 10-8h3l2-4 6-5h3l2-4 10-8 11-9 7-6h3v-2z" fill="#72C4F5"/>
<path transform="translate(1803,428)" d="m0 0h1l-1 47v84l4 93 4 66 5 57 3 32v17l-9 24-6 2-7-26-6-28-2-6-5-25-2-9 1-10 9-30 1-6h-2l-1 10-8 26-3-1-8-35-8-36-2-8 1 10 10 43 9 39 4 17 3 16-6-5-8-11-11-14v-2h-3l12 16 10 13 7 9 5 17 7 31 6 25 7 32 2 7-4-2-17-17-4-5-2-1v-2l-2 1 9 10 17 17 3 2 6 23 3 13v4h77l30-1 10-1 6-3 1-4 3-34 2-1v15l-1 24 1 3 24 3 5 4 1 2v7l-5 6-7 2-7 1-1 1h-188v36h-1l-1-37-13-2-4-4-1-2v-10l2-4 23-1h17l-9-34-5-23-5-18-12-51-10-46-7-41-5-33-2-22v-21l2-13 3-6 5-5h7l6 4 8 8 9 15 12 27 11 31 3 12v-13l-4-65-4-83-1-35v-45l1-53 1-9z" fill="#B2DAE1"/>
<path transform="translate(1509,529)" d="m0 0h1v128l-3 4-3 1-53 1h-115l-67-1-4-2-1-6 3-4h2l2-4 5-4 5-6 9-6 11-10 7-8 8-7 13-12 10-6 4-1h8l10 5 11 11 7 8v2h2v2h2l7 8 7 4h9l6-3 10-8 34-34 7-8 7-6 2-3h2l2-4h2l1-3 9-7z" fill="#F0F6F9"/>
<path transform="translate(768,1571)" d="m0 0 2 1 12 55 5 24v3l-7 2-30 5-27 5-6 1h-10l-1 2h-2l-2 9-8 13-7 9h-33l-5-18-2-6-4-24-9-39-2-11v-6l6-7 3-1h8l14 3 14 6 6 5 6 2 19-8 41-17z" fill="#FE9593"/>
<path transform="translate(356,512)" d="m0 0h361l5 4v2h2l1 4v10l-3 6-6 4h-362l-4-1-4-5-2-5v-8l3-6 6-4z" fill="#F1F6F9"/>
<path transform="translate(359,460)" d="m0 0h345l12 1 6 4 3 4v11l-3 6-5 4h-365l-3-2v-2h-2l-3-6v-9l4-7 5-3z" fill="#F0F6F9"/>
<path transform="translate(798,139)" d="m0 0h183l39 1 12 1 5 3 2 5v7l-3 9-3 2-15 1-46 1h-119l-83-1-57-1-5-4-2-11 2-7 3-3 8-2z" fill="#F2F7FA"/>
<path transform="translate(968,763)" d="m0 0h80l1 1 1 14-3 12-6 8-5 4-4 2 2 5 3 11v16l-3 15-5 15-5 1-8-4-3-4-1-22-6-7-3-1-24-1h-18l-18 1-7 7-1 3v15l-3 9-5 3h-5l-7-22-1-10v-12l2-10 2-4v-6l-3-9 2-9 6-9 12-6 13-4z" fill="#010109"/>
<path transform="translate(858,183)" d="m0 0h117l35 1h13l11 1 4 4v16l-3 5-2 1-31 1-99 1h-138l-52-1-5-5-2-4v-8l4-7 6-3 55-1z" fill="#F2F7FA"/>
<path transform="translate(173,498)" d="m0 0v3l-2 5v7l8 14 9 10 11 8 16 8 4 1 10-4 6-4v3l-5 5-7 5-1 2 10 3 12 5 12 7 11 9 10 10-1 5-5 5-10 8-12 7h-4v2l-21 6-6 1h-28l-19-5-13-5v-2l-9-3-10-7v-2h-2l-5-7 1-4 10-10 12-9 10-6 23-9-10-8-7-7-4-8-2-7v-17l3-8z" fill="#F1F6F9"/>
<path transform="translate(481,130)" d="m0 0h166l1 3h-2v2l-5 3-13 11-14 11-1 2-5 3-5 4-1 2-5 3-9 7-1 2-3 1-1 2-7 4-2 3-5 3-4 3h-3l-5-5-5-4-3-1-2-3-3-1-5-5-9-6v-2l-4-2-6-4-1-2-3-1-5-5-7-6-3-1-2-3-3-1-5-5-5-3-5-5z" fill="#F1F6F9"/>
<path transform="translate(641,1588)" d="m0 0h8l14 3 14 6 11 9 9 12 7 15 2 6 1 7v11l-2 11-4 12-7 11-7 9h-33l-5-18-2-6-4-24-9-39-2-11v-6l6-7z" fill="#010109"/>
<path transform="translate(358,564)" d="m0 0h176l6 2 5 6 1 3v9l-4 8-4 2-22 1h-161l-5-2-4-5-2-5v-7l4-7 6-4z" fill="#EEF5F9"/>
<path transform="translate(1787,1222)" d="m0 0h157l7 1 1 2-13 17-9 9-18 12-12 6-17 3h-28l-17-5-12-5-9-5v-2h-3l-20-20-7-10z" fill="#72C4F5"/>
<path transform="translate(1953,908)" d="m0 0h1v15l-1 24 1 3 24 3 5 4 1 2v7l-5 6-7 2-7 1-1 1h-188v36h-1l-1-37-13-2-4-4-1-2v-10l2-4 41-2h26l12 1h65l30-1 10-1 6-3 1-4 3-34z" fill="#BBDFF9"/>
<path transform="translate(1345,439)" d="m0 0 11 1 10 6 4 5 2 6h14l10 5 7 9 1 2v14l-5 10-6 5-4 2-13 1h-75l-6-2-5-8v-6l3-5 8-5 4-9 5-4 1-2 12-4 1-3h2l2-6 5-6 9-5z" fill="#EBF4F9"/>
<path transform="translate(749,230)" d="m0 0h123l7 1 2 2 1 8-1 15-3 2-45 1h-56l-62-1-6-3-2-5v-11l4-6 4-2z" fill="#F2F7FA"/>
<path transform="translate(1228,1135)" d="m0 0h3l4 11 9 29 9 27 15 47 3 9-1 4-8-23-3-8-2 1v-2h-2l-1-6-4-1-1-5h-2l-2-4-2 6-2 3v7h2l1 6 2 1v2l2 1h-2v2l-7 2-4-2v-2l-3-1 2-8-8 8-1-4-1-6 5-1 4 1-2-8-3-1-5 3h-2l-1 2-3-2-4-4v-2h-3l-1 2-3-1v-2l-4 1v3h-3l2-4 2-2-2-5 2-6-7 3h-3l-3-8-8-7-2-4 3-5 2-4 7-1v-2h2v-2l13-10 8-11 8-6h2v-2l6-2-1-4-4-2z" fill="#E39092"/>
<path transform="translate(1929,1465)" d="m0 0h69l50 1v5l-60 1h-651l1-3 35-2 282-1h150z" fill="#1C1222"/>
<path transform="translate(962,1260)" d="m0 0h15l10 4 7 6 5 8 2 6v10l-6 12-8 9-8 4-5 1h-8l-12-6-5-4-6-9-2-5v-14l6-12 7-6z" fill="#72C4F6"/>
<path transform="translate(0,1466)" d="m0 0h34l158 1 17 1 375 1 1 4-7 1h-56l-358-1-164-1z" fill="#150D18"/>
<path transform="translate(722,1156)" d="m0 0 6 2 4 5 5-3v2h4v2l4 1 9 8v2l5 1 4 2-1 7 3 1 1 5v4l1 2 1-5 1-3 3 1 2 5 2 4 1 3h-3l-1 8 1 1v6l-1 6v2l-3 1-3 6-2 3h-7l-2 5-3 4h-2l-3-9 2-1-7-3-1-3 1-3 3-3 2-4-6 1v2l-4 1-3-2 2-6h3l-2-4 1-5 7-2-6-7-5 1-4 2-6-10-1-3 1-2-4-2-1-5-4-5 1-4 5-1-5-5 1-4z" fill="#E39092"/>
<path transform="translate(1826,855)" d="m0 0 2 1 1 5 8 14 14 24 11 19 4 8 2 15v9l3-1v2h-39l-3-4v-8l-1-10-2-19v-9l-1-9v-32z" fill="#8CCDC9"/>
<path transform="translate(1760,665)" d="m0 0 2 1 8 36 6 25 4 18 2 1 2-9 6-21 1-6h2l-1 9-9 31 1 10 5 23 2 11 4 16 8 34 1 6 5-1 1 1 5-13h2l1-3 2 2 6 24v32l1 11v10l2 17 1 17-2 5h-3l-9-37-1-3-8-7-19-19-2-5 3 1v2l4 2 11 12 10 10 2 1-3-7-10-46-8-32-6-25-4-6-8-10-13-17-5-7 2-1 5 5 9 12 10 13 2 1-3-14-9-38-7-31-8-35z" fill="#B2D6DC"/>
<path transform="translate(648,1178)" d="m0 0h45l1 2-2 6h-44l-74-1h-196l-45 1-13 1-15 5-6 3h-2l-2-4 16-7 8-2h7v-2l14-1h250z" fill="#72C4F6"/>
<path transform="translate(1902,816)" d="m0 0 2 1 1 10 11 35 5 17v14l-5 50v9l-14 1h-68l-6-1v-4l4 1v2l69-1v-130z" fill="#B2D9DF"/>
<path transform="translate(1083,1425)" d="m0 0 2 1-11 5-7 2v2l-26 11-35 14-34 14-28 11-15 6-29 12-55 22-29 12-25 10-21 8-6 1v-4l8-4 30-12 34-14 59-24 25-10 38-15 25-10 19-8 65-26z" fill="#CCDCE3"/>
<path transform="translate(1442,1026)" d="m0 0 2 1v3l-20 12-14 10-6 5-7 8-15 15-13 17-9 15-7 14-7 19-7 25-5 26h-5l-2-2 1-14 5-25 9-25 9-19 12-19 13-16 7-8 10-10 11-9 12-9 8-5 8-3 5-3z" fill="#71C3F6"/>
<path transform="translate(577,1449)" d="m0 0 2 3 4 12v4h-398l-95-1 3-1v-2h160l82 1h245l-3-12z" fill="#B9BDC3"/>
<path transform="translate(1881,619)" d="m0 0 1 4-10 26-10 28-4 12v29l2 28 2 48 2 27 2 51 1 10 3-5 15-28 9-16 1 2-8 16-13 25-5 10v37l1 27h-2l-3-24-5-10-14-24-11-19-8-14 1-3 11 18 15 26 8 13 1 5h2l-2-52-1-15-1-35-2-26-3-12-11-24-26-56v-3h2l17 36 7 16 8 16 3 8h1l-1-35-2-31-1-43h1l2 14v5l3-3 16-45z" fill="#040329"/>
<path transform="translate(1506,527)" d="m0 0 2 1-3 6-20 20-6 4-5 6-8 7-8 8-7 8-32 32-10 7-3 1h-9l-8-5-6-6v-2h-2v-2h-2l-4-5v-2l-3-1-7-8-7-6-7-3h-8l-7 3-9 6-16 15-8 7-5 6-8 7-7 5h-2l-2 4h-2l-1 3-6 5-3-1 15-16 14-13 6-3 7-8 8-7 11-10 12-6h13l6 3 9 7v2l4 1 11 12 7 8 8 5h8l8-6 16-15 8-9 10-8 7-8 8-7 9-9 4-5 5-4 15-15 8-7z" fill="#73C4F5"/>
<path transform="translate(1400,546)" d="m0 0h11l5 2 7 8 1 5v8l-3 6-7 6-7 2-8-1-8-6-3-5-1-4v-7l2-6h2l2-4z" fill="#72C4F5"/>
<path transform="translate(180,1057)" d="m0 0h5l17 17 8 10 10 14 10 17 8 16 6 16 6 22 3 18v5l-1 1h-5l-2-4-4-22-6-21-8-20-9-17-8-12-9-12-12-14-5-5-4-5z" fill="#71C3F6"/>
<path transform="translate(1760,665)" d="m0 0 2 1 8 36 6 25 4 18 2 1 2-9 6-21 1-6h2l-1 9-9 31 1 10 5 23 2 11 4 16 8 34 3 9v3h2v10l6 25 10 43 3 14v3h-2l-9-36-1-3-8-7-19-19-2-5 3 1v2l4 2 11 12 10 10 2 1-3-7-10-46-8-32-6-25-4-6-8-10-13-17-5-7 2-1 5 5 9 12 10 13 2 1-3-14-9-38-7-31-8-35z" fill="#030325"/>
<path transform="translate(1341,1462)" d="m0 0 1 3h475v1l-12 1h-150l-315 1z" fill="#B1B2B1"/>
<path transform="translate(1246,1177)" d="m0 0 13 2 18 5 16 7 14 10 12 12 10 14 4 7 1 6-4 1-5-6-8-11-11-12-10-9-14-8-18-6-14-3-4-5z" fill="#72C4F6"/>
<path transform="translate(941,928)" d="m0 0 3 3 5 2 2 1v2l7 1 6 2h19l13-4 12-6 3 31-3 2h-70v-1l71-1-2-13-14-1-11 1-2 1-16-3h-5l-3-2-7-2-4-2-4 4-2 7h-1l1-13 1-8z" fill="#E39092"/>
<path transform="translate(1345,439)" d="m0 0 11 1 10 6 4 5 2 6h14l10 5 7 9 1 2v14l-5 10-6 5-4 2-13 1h-75l-6-2-5-8v-6l3-5 10-7 2-1-1 6-7 3-3 3-1 4 2 6 3 3 4 1h80l9-3 4-2 5-10 1-8-3-9-5-6-7-3h-17l-2-8-4-5-7-4-4-1h-8l-10 6-5 7-3 7-11 3-7 6-3 3v-5l5-4 1-2 12-4 1-3h2l2-6 5-6 9-5z" fill="#047EF7"/>
<path transform="translate(681,1352)" d="m0 0 13 1 49 9 38 7 4 2 19 4-1 3-5 1-104-20-12-3z" fill="#C7DDEB"/>
<path transform="translate(1929,1465)" d="m0 0h69l50 1v3h-159l-66-2v-1z" fill="#2D1E51"/>
<path transform="translate(1442,1026)" d="m0 0 2 1v3l-20 12-14 10-6 5-7 8-15 15-13 17-4 6h-2l2-4 8-11 2-3h-3l-7 8-7 12h-2l2-5 8-12 14-17 13-13 11-9 12-9 8-5 8-3 5-3z" fill="#72C4F6"/>
<path transform="translate(345,1180)" d="m0 0h42l232 1v1l-232 1-46 1-21 3-15 5-6 3h-2l-2-4 16-7 15-3z" fill="#047EF8"/>
<path transform="translate(1842,461)" d="m0 0h1l1 6 3 54 2 25 1 26 2 21 1 37v26h-1l-2-22-2-52-5-14-8-18-10-22-14-32 1-3 3 5 8 18 13 29 9 21 1-1v-14l-1-27-2-27z" fill="#060543"/>
<path transform="translate(1345,1448)" d="m0 0h1l-1 8-1 6 367 2v1h-369l-1-5z" fill="#B3DBE5"/>
<path transform="translate(856,1514)" d="m0 0 3 1-10 5 13-4 5-1-4 3-18 7-29 12-25 10-21 8-6 1v-4l8-4 30-12 34-14z" fill="#C3D8E2"/>
<path transform="translate(305,1185)" d="m0 0 3 1-12 6 1 3 4-2 3 1-13 7-9 7-6 5-9 11-7 10-5 8-3-1v-6l5-10 8-10 9-10 7-7 11-7 10-5z" fill="#6EC1F6"/>
<path transform="translate(1803,428)" d="m0 0h1l-1 47v84l4 93 4 66v12h-1l-2-22-5-89-2-44-1-35v-45l1-53 1-9z" fill="#B2DDE5"/>
<path transform="translate(1340,584)" d="m0 0h13l6 3 9 7v2h2l4 6 5 6-1 2-3-3v-2l-3-1-7-8-7-6-7-3h-8l-7 3-9 6-16 15-8 7-5 6-8 7-7 5h-2l-2 4h-2l-1 3-6 5-3-1 15-16 14-13 6-3 7-8 8-7 11-10z" fill="#047EF8"/>
<path transform="translate(934,1484)" d="m0 0m-3 1h3v2h-2l-1 3-31 13-30 12-8 2-12 4-2-1 4-3 7-2v-2l19-8 25-10 18-6z" fill="#D0DFE7"/>
<path transform="translate(1881,619)" d="m0 0 1 4-10 26-10 28-4 12v29l2 28v15l-1 9h-1l-1-9-2-39-1-17-1-43h1l2 14v5l3-3 16-45z" fill="#060545"/>
<path transform="translate(1903,817)" d="m0 0 2 3 8 25 7 24 2 4 2-2v15l-4 36h2l2-4 14-15 11-14h2l-2 4-8 10-11 12-9 10-2 5-3 20h-1l1-16 4-41v-14l-13-43-4-13z" fill="#030220"/>
<path transform="translate(577,1449)" d="m0 0 2 3 3 10v5h-148l-40-1v-1h186l-3-12z" fill="#B6DDEC"/>
<path transform="translate(1506,527)" d="m0 0 2 1-3 6-20 20-6 4-5 6-8 7-8 8-7 8-12 12-2-1 3-4h2l2-4 7-10 15-14 10-11 5-4 15-15 8-7z" fill="#1C8DF7"/>
<path transform="translate(709,1135)" d="m0 0 1 3v11l-6 13-2 4v9l-1 3h-2l-3 9-6 17-10 30-2 2-1-2 16-50 9-30 6-17z" fill="#E39092"/>
<path transform="translate(783,1176)" d="m0 0h2l2 24v12l-7 24-10 29-1 6-2-2 2-10 11-33 4-14v-4l-4-2-3-10-1-4 5-5h1z" fill="#E39092"/>
<path transform="translate(1442,1026)" d="m0 0 2 1v3l-20 12-14 10-13 11-10 10h-2l-2 4h-4l2-4 5-6 8-7 7-7 11-8 14-10 11-6z" fill="#047EF8"/>
<path transform="translate(826,1422)" d="m0 0h250l3 2-1 3-6 1 4-3-20-1h-224l-6-1z" fill="#73C3F5"/>
<path transform="translate(1954,556)" d="m0 0h1v11l-5 50-3 20-1 15h-1l-1-16-6-21-9-29-1-7 3 3 10 34 3 10v3h2l2-22 5-45z" fill="#060541"/>
<path transform="translate(1819,695)" d="m0 0h2l17 36 7 16 8 16 3 8 2-1 1-9h1l1 7v13l-1 3h-2l-4-11-7-15-9-19-15-33-4-8z" fill="#040327"/>
<path transform="translate(1935,754)" d="m0 0h1l-1 19-3 34-1 3 5-5 9-13 16-22 2-1-2 6-10 13-12 17-9 13-1 7h-1v-12l6-57z" fill="#050435"/>
<path transform="translate(1345,439)" d="m0 0 11 1 10 6 4 5 1 5-3-1-4-6-8-5-4-1h-8l-10 6-5 7-3 7-11 3-7 6-3 3v-5l5-4 1-2 12-4 1-3h2l2-6 5-6 9-5z" fill="#0A81F7"/>
<path transform="translate(727,1342)" d="m0 0 4 2 10 1-3 2h-91l-17-1v-1l94-1z" fill="#A3B7D0"/>
<path transform="translate(795,1090)" d="m0 0 3 1 2 28 1 36h-3l-2-30-1-19z" fill="#070647"/>
<path transform="translate(1140,1090)" d="m0 0 3 1-3 63-2 1-2-1 2-45z" fill="#070647"/>
<path transform="translate(1839,390)" d="m0 0h2l1 16 1 31 1 17v13l-3 3-2-43z" fill="#E18F91"/>
<path transform="translate(1217,1075)" d="m0 0 4 2v4h2l7 12 5 11 5 7v6l-4-1-10-19-8-15z" fill="#DEEFF9"/>
<path transform="translate(856,1514)" d="m0 0 3 1-10 5 13-4 5-1-4 3-18 7-15 6h-4v-2l-16 6-3-1 29-12z" fill="#BCD3DE"/>
<path transform="translate(1860,781)" d="m0 0h1l3 40 2 51 1 11-3 2-2-34-1-35-2-26z" fill="#070647"/>
<path transform="translate(1165,1167)" d="m0 0 2 1-3 4-2 6-3 2-3 19v17l3 11-1 4-6-21 1-13 3-23 5-5z" fill="#E29092"/>
<path transform="translate(1944,653)" d="m0 0h1v13l-2 23 5-4 11-14 10-12 2-4h2l-2 5-7 9-11 14-8 8-3 8-2 14h-1l1-20z" fill="#06053D"/>
<path transform="translate(1827,856)" d="m0 0 3 3 9 15 15 26 8 13 1 5h2l1-4v6l-3 1-10-17-15-26-9-15-2-4z" fill="#04032B"/>
<path transform="translate(1298,617)" d="m0 0 1 3h3l-14 13-5 3h-2l-2 4h-2l-1 3-6 5-3-1 15-16 14-13z" fill="#6EC0F5"/>
<path transform="translate(1914,675)" d="m0 0 2 1 8 25 9 33v3h2l2-15h1v11l-1 13-2 2-4-13-12-40-5-17z" fill="#06053C"/>
<path transform="translate(1856,690)" d="m0 0h1l2 43 1 13v15l-1 9h-1l-1-9-2-39v-16z" fill="#070647"/>
<path transform="translate(1850,580)" d="m0 0h1l1 13 1 37v26h-1l-2-22-1-43z" fill="#794D6E"/>
<path transform="translate(1949,889)" d="m0 0h2l-2 4-8 10-11 12-9 10-2 5-3 20h-1l1-16 2-21h1l1 8 2 1 2-4 14-15z" fill="#04042F"/>
<path transform="translate(1166 1e3)" d="m0 0 6 2 11 11 3 6 3 2 1 6-4-2-12-14-8-9z" fill="#E2F0F9"/>
<path transform="translate(1075,1161)" d="m0 0h21l42 1v1l-13 1h-43l-7-1z" fill="#B2DDE4"/>
<path transform="translate(995,836)" d="m0 0 5 2v2l3 3h-2l1 3h-2v2h-9l-5-4v-2l2-1-1-2z" fill="#E39092"/>
<path transform="translate(1216,1339)" d="m0 0h5l4 4h17l1 2h-44l3-2z" fill="#EFF5F9"/>
<path transform="translate(856,1161)" d="m0 0h43l1 2-11 1h-47v-1l14-1z" fill="#B2DDE4"/>
<path transform="translate(1801,845)" d="m0 0h2l3 8v3h2v10l5 21v7l-2-1-8-37-2-7z" fill="#030326"/>
<path transform="translate(826,1528)" d="m0 0m-3 1h3v2l2 1-14 6-15 3 1-4 4-2 8-2z" fill="#D3E3EE"/>
<path transform="translate(1953,908)" d="m0 0h1v15l-1 24v3h-8l4-5 1-13 2-23z" fill="#F2F7FA"/>
<path transform="translate(1372,1083)" d="m0 0 4 2-13 18-3 4h-3l2-6 9-13z" fill="#047EF8"/>
<path transform="translate(577,1449)" d="m0 0 2 3 3 10v5h-65v-1l47-1h16l-3-12z" fill="#A5D0D4"/>
<path transform="translate(1370,596)" d="m0 0 6 5 9 11 10 9v2l-4 1-8-8v-2h-2v-2h-2l-3-7-6-7z" fill="#6CBFF4"/>
<path transform="translate(1903,817)" d="m0 0 2 3 8 25 5 19-2 2-10-33-3-10z" fill="#030326"/>
<path transform="translate(1759,758)" d="m0 0 4 1 12 16 8 11-2 2-11-14-9-12z" fill="#04042E"/>
<path transform="translate(1782,773)" d="m0 0 3 2 3 16-6-5-6-8 1-3 4 2z" fill="#DCD9DC"/>
<path transform="translate(1828,948)" d="m0 0 4 1v2h39v1l-9 1h-28l-6-1z" fill="#B0DCE3"/>
<path transform="translate(637,1627)" d="m0 0 2 4 7 31 1 11-2-1-1-3v-12h-2l-5-23z" fill="#B2C0C2"/>
<path transform="translate(1927,827)" d="m0 0h1l-1 32-1 8-3 1 1-17 1-3z" fill="#7B4F6E"/>
<path transform="translate(1962,769)" d="m0 0 1 2-6 9-14 19-1 2h-2l2-5 11-15 8-11z" fill="#030324"/>
<path transform="translate(1971,655)" d="m0 0h2l-2 5-7 9-11 14-4 2 2-4 9-11 10-13z" fill="#030323"/>
<path transform="translate(264,1217)" d="m0 0v3l-7 10-2 4v3l6-8v3l-5 9h-4v-6l5-10z" fill="#72C4F6"/>
<path transform="translate(1809,891)" d="m0 0 2 4v2h2l3 12-4-2-9-12 6 1z" fill="#E2E2E5"/>
<path transform="translate(1859,761)" d="m0 0h1l1 7v13l-1 3h-2l-3-9v-3l3-2z" fill="#02021C"/>
<path transform="translate(1783,760)" d="m0 0h1l5 23 1 10-3-2-3-16-2-8z" fill="#04032A"/>
<path transform="translate(1782,787)" d="m0 0 4 2 1 3 4 2 3 11v5h-2l-4-13-6-8z" fill="#03021D"/>
<path transform="translate(1046,1422)" d="m0 0h30l3 2-1 3-6 1 4-3-30-2z" fill="#94B8D9"/>
<path transform="translate(1855,747)" d="m0 0h1l1 14h1v10h-3l-3-9 1-4 2 1z" fill="#BBC6CB"/>
<path transform="translate(1914,675)" d="m0 0 2 1 8 25v5l-2-1-8-27z" fill="#04032A"/>
<path transform="translate(1153,1197)" d="m0 0 2 4 1 15 3 11-1 4-6-21z" fill="#E89192"/>
<path transform="translate(438,71)" d="m0 0 2 1-9 7-5 7h-2l-2 4-3 5-1-3 6-9 4-5z" fill="#F2F7FA"/>
<path transform="translate(1786,881)" d="m0 0 3 1v2l4 2 11 12 1 2-4-1-13-13z" fill="#030220"/>
<path transform="translate(1853,641)" d="m0 0h1l1 17v11l-3 2-1-12v-11h1z" fill="#E39092"/>
<path transform="translate(1858,682)" d="m0 0 1 4-2 4-1 16-2-1v-19z" fill="#030220"/>
<path transform="translate(779,1618)" d="m0 0 2 4 6 29v3l-6 1 1-2h2l-1-11-4-19z" fill="#E39092"/>
<path transform="translate(263,1220)" d="m0 0 1 2-3 7-5 8-2 1 1-6 7-11z" fill="#047EF8"/>
<path transform="translate(1936,717)" d="m0 0h1v14l-2 6h-2l-2-10 3 1 1-10z" fill="#AFB4B2"/>
<path transform="translate(1853,662)" d="m0 0h1l2 14v5l5-3-1 5-5 1-1 2-1-12z" fill="#070647"/>
<path transform="translate(829,968)" d="m0 0h5l-2 3-11 4h-5l4-4z" fill="#D5EBF8"/>
<path transform="translate(1868,923)" d="m0 0h1l1 27h-2l-2-23z" fill="#070647"/>
<path transform="translate(927,896)" d="m0 0h1l5 17 5 8-1 2-4-3-6-16-1-7z" fill="#B4DEE4"/>
<path transform="translate(1760,665)" d="m0 0 2 1 4 17-1 5-2-4-3-13z" fill="#04042F"/>
<path transform="translate(723,1339)" d="m0 0 17 5v1h-9l-4-2-3 2h-3v-4h2z" fill="#F2F7FA"/>
<path transform="translate(1149,988)" d="m0 0 8 3 5 4 2 4-5-1-10-8z" fill="#D7EBF9"/>
<path transform="translate(1846,752)" d="m0 0 3 3 5 11 2 6h-3l-7-16z" fill="#030325"/>
<path transform="translate(1881,619)" d="m0 0 1 4-8 20-2 1 1-6z" fill="#050434"/>
<path transform="translate(1803,428)" d="m0 0h1l-1 30-2 1v-22z" fill="#B5DDE8"/>
<path transform="translate(769,1631)" d="m0 0 1 2h2l2 3v3l2 1v3l-4 1-3-6z" fill="#E39092"/>
<path transform="translate(1147,1157)" d="m0 0h7l1 5-4 1-5-2z" fill="#F2F7FA"/>
<path transform="translate(1928,579)" d="m0 0 3 3 4 14-1 4-4-10z" fill="#030325"/>
<path transform="translate(1801,845)" d="m0 0h2l3 8v9l-2-2-3-11z" fill="#02021C"/>
<path transform="translate(807,977)" d="m0 0 4 1-7 5-5 2-3-1 8-6z" fill="#D6EBF8"/>
<path transform="translate(1813,891)" d="m0 0 2 4 3 13-1 3-4-9-1-8z" fill="#04032D"/>
<path transform="translate(684,1599)" d="m0 0 12 2-4 3-4 1-5-2z" fill="#EFF3F6"/>
<path transform="translate(1949,889)" d="m0 0h2l-2 4-8 10-4 2 6-8z" fill="#030322"/>
<path transform="translate(1811,493)" d="m0 0 3 2 6 16-2 1-7-16z" fill="#070647"/>
<path transform="translate(1959,671)" d="m0 0 3 1-11 13h-2l2-4z" fill="#04042D"/>
<path transform="translate(1797,830)" d="m0 0h2l4 15h-3l-3-12z" fill="#030323"/>
<path transform="translate(1279,636)" d="m0 0h2l-2 4h-2l-1 3-6 5-3-1 10-9h2z" fill="#047EF8"/>
<path transform="translate(1304,472)" d="m0 0 3 2v8l1 2h-9l2-2h3v-5l-2 1z" fill="#85CBF2"/>
<path transform="translate(1945,618)" d="m0 0h2v7l-1 4h-2l-1-8z" fill="#ADB6B4"/>
<path transform="translate(1803,900)" d="m0 0 4 1 9 9-3 1-10-10z" fill="#05053B"/>
<path transform="translate(1481,1549)" d="m0 0 6 4 8 7-2 2-5-5-7-6z" fill="#F2F7FA"/>
<path transform="translate(788,1158)" d="m0 0h4v4l-7 3 1-5z" fill="#F2F7FA"/>
<path transform="translate(1816,909)" d="m0 0 3 3 1 10h-2l-3-10-1-2z" fill="#02021A"/>
<path transform="translate(1955,545)" d="m0 0h2l-1 17h-1l-1-12z" fill="#B17081"/>
<path transform="translate(1119,972)" d="m0 0 6 1v2h3v2l5 1-2 1-12-4z" fill="#D7ECF8"/>
<path transform="translate(1934,743)" d="m0 0 3 3v11l-3-1z" fill="#E39092"/>
<path transform="translate(1809,880)" d="m0 0 3 3 1 4v7l-2-1-2-9z" fill="#03021F"/>
<path transform="translate(479,1517)" d="m0 0 4 1-5 3-10 1v-2z" fill="#F2F7FA"/>
<path transform="translate(1184,1019)" d="m0 0 5 2 1 6-4-2-2-3z" fill="#DEEEF9"/>
<path transform="translate(1819,511)" d="m0 0 3 3 3 6-1 4-5-10z" fill="#04032D"/>
<path transform="translate(1326,1230)" d="m0 0 4 2 2 4-1 4-4-5z" fill="#047EF8"/>
</svg>
